<svg height="26" viewBox="0 0 25 26" width="25" xmlns="http://www.w3.org/2000/svg"><path d="m24.9995549 13c.01674-.8823817-.4391236-1.7966184-1.3009297-2.3479985.8618061-.5516695 1.3176697-1.44997875 1.3009297-2.34799844.01674-.89830922-.4549666-1.85974918-1.3660958-2.39520168l-8.6697767-5.23144957h-.0167399c-.748214-.45697361-1.5932804-.67735181-2.4398414-.67735181-.8450662 0-1.7074704.2203782-2.4556843.67735181l-8.66947777 5.23173911c-.91083028.5354525-1.38193903 1.48125461-1.36609584 2.39520168-.01584319.89801969.43912348 1.7963289 1.30092973 2.3479985-.86180625.5510905-1.31677292 1.4653272-1.31677292 2.3477089 0 .8980197.45496667 1.7963289 1.31677292 2.3479985-.86180625.55138-1.30092973 1.4653272-1.30092973 2.3479984 0 .9139472.47170653 1.8591701 1.3828357 2.4108397l8.68561991 5.2155221c.748214.4569734 1.5938782.6776413 2.4398412.6776413.8459631 0 1.6916273-.2209574 2.4398413-.6776413l8.6530368-5.2155221c.9108303-.5516696 1.3828358-1.4971821 1.3828358-2.4108397 0-.8823817-.4391236-1.7806909-1.3009298-2.3479984.8615072-.5516696 1.3173708-1.4499788 1.3006308-2.3479985zm-2.6679225 5.1054778-8.6530367 5.215522c-.3581144.2047404-.748214.3153639-1.1547546.3153639-.4065405 0-.8133801-.110334-1.1547545-.3153639l-8.68561993-5.215522c-.16291514-.1103339-.22808111-.2365954-.22808111-.4097704 0-.1734647.06516597-.2994365.22808111-.3938429l.92697237-.5516695 6.45711976 3.8761667c.7488119.4413356 1.594775.6779309 2.4398414.6779309.8465609 0 1.6916272-.2365953 2.4398412-.6779309l6.4577177-3.8761667.9269723.5516695c.1629152.0944064.2280812.2363058.2280812.3938429-.0002989.173175-.065465.2994365-.2283802.4097704zm0-4.6957074-1.5612951.9452229-7.1075848 4.2702991c-.3581144.2047404-.7488118.3153639-1.1556514.3153639-.4068394 0-.7966401-.110334-1.1547545-.3153639l-7.10728576-4.2702991-1.56129514-.9452229c-.17935625-.1103339-.22808125-.2365954-.24392444-.4097704.01584319-.1578267.0642693-.2994365.24392444-.3938429l.91083014-.5516695 6.47266406 3.8761667c.7488119.4569735 1.594775.6776414 2.4398412.6776414.846561 0 1.6916274-.2206679 2.4398414-.6620035l6.4744575-3.8920942.9102324.5516696c.1629152.0944064.2280813.2363057.2280813.3938429 0 .1734645-.0651661.299726-.2280813.4100599zm0-4.69599708-1.5932803.96115041c-.0167398.01563785-.0334798.01563785-.0493229.03156537l-7.0262767 4.2230959c-.3581144.2209575-.7488118.3153639-1.1556514.3153639-.4068394 0-.81338-.0944064-1.1547545-.3153639l-7.02627659-4.2230959c-.01584319-.01563798-.03258306-.01563798-.04842611-.03156537l-1.5938782-.96115041c-.16291528-.1103338-.22808125-.23630573-.24392444-.40948072.01584319-.15782669.08100916-.29943632.24392444-.39384287l8.6688799-5.23173912c.3581143-.20474036.748214-.3150743 1.1547546-.3150743.4065405 0 .7975369.11033394 1.1556514.3150743l8.6688798 5.23173912c.1629152.09440655.2280812.23630572.2280812.39384287-.0002989.17317499-.065465.3150743-.2283802.40948072z" fill="#ffffff" fill-opacity=".9" transform=""/></svg>